<?xml version="1.0" encoding="UTF-8"?>
<svg id="Layer_2" data-name="Layer 2" xmlns="http://www.w3.org/2000/svg" viewBox="0 0 79.47 19.04">
  <defs>
    <style>
      .cls-1 {
        fill: #fff;
      }
    </style>
  </defs>
  <g id="Layer_1-2" data-name="Layer 1">
    <g>
      <path class="cls-1" d="M6.18,18.73L0,.14h1.38l3.28,9.96c.91,2.7,1.66,5.05,2.18,7.12h.08c.55-2.1,1.41-4.5,2.37-7.12L12.91.14h1.41l-6.9,18.59h-1.24Z"/>
      <path class="cls-1" d="M17.6.14v18.59h-1.3V.14h1.3Z"/>
      <path class="cls-1" d="M22.12.39c1.02-.25,2.34-.39,3.72-.39,2.32,0,3.83.5,4.88,1.52.75.77,1.13,1.77,1.13,3.06,0,1.9-1.35,3.5-3.2,4.17v.05c1.54.36,3.92,1.71,3.92,4.75,0,1.52-.52,2.68-1.38,3.56-1.21,1.27-3.23,1.77-5.85,1.77-1.43,0-2.51-.11-3.23-.17V.39ZM23.42,8.3h2.73c2.68,0,4.36-1.57,4.36-3.64,0-2.62-1.96-3.56-4.72-3.56-1.24,0-1.96.08-2.37.19v7.01ZM23.42,17.63c.55.11,1.32.14,2.29.14,2.84,0,5.52-1.02,5.52-4.19,0-2.92-2.51-4.19-5.46-4.19h-2.34v8.25Z"/>
      <path class="cls-1" d="M44.79,9.49h-7.45v8.14h8.33v1.1h-9.63V.14h9.19v1.1h-7.89v7.14h7.45v1.1Z"/>
      <path class="cls-1" d="M51.96.14v10.84c0,3.64,1.52,5.32,3.81,5.32,2.46,0,3.92-1.68,3.92-5.32V.14h3.39v10.62c0,5.74-2.95,8.28-7.42,8.28s-7.09-2.4-7.09-8.25V.14h3.39Z"/>
      <path class="cls-1" d="M66.97.39c1.21-.22,2.9-.39,5.19-.39,2.48,0,4.3.52,5.49,1.52,1.1.91,1.82,2.37,1.82,4.11s-.55,3.23-1.6,4.22c-1.35,1.35-3.48,1.99-5.88,1.99-.63,0-1.21-.03-1.66-.11v7.01h-3.37V.39ZM70.33,9.05c.41.11.97.14,1.66.14,2.54,0,4.08-1.24,4.08-3.42s-1.43-3.17-3.78-3.17c-.94,0-1.6.08-1.96.17v6.29Z"/>
    </g>
  </g>
</svg>